<?xml version="1.0" encoding="utf-8" ?>
<svg baseProfile="full" height="200mm" version="1.1" viewBox="0,0,200,200" width="200mm" xmlns="http://www.w3.org/2000/svg" xmlns:ev="http://www.w3.org/2001/xml-events" xmlns:xlink="http://www.w3.org/1999/xlink"><defs /><rect fill="#1a1a1a" height="200" width="200" x="0" y="0" /><text alignment-baseline="middle" fill="#e1ed5e" style="dominant-baseline: central; font-size:9.0px; font-family:Arial;" text-anchor="middle" x="100.0" y="100.0">2024</text><line stroke="#e1ed5e" stroke-width="0.3" x1="100.0" x2="100.0" y1="15.0" y2="10.0" /><path d="M 100.0 14.0 a86.0,86.0 0 0,1 42.35913384403234,11.155469271406648" fill="none" id="id13" stroke="none" /><text fill="#e1ed5e" style="font-size:6.75px; font-family:Arial;" text-anchor="middle"><textPath startOffset="22.145653131862478" xlink:href="#id13">January</textPath></text><path d="M 104.64783097203109 79.52079915486377 l 3.2997701320597908 -14.53939605030504 a35.90914217626419,35.90914217626419 0 0,0 0.5999696845920989,0.14159121193097973 l -3.5488719703917746 14.480608694727833" fill="#ffb110" stroke="none" /><path d="M 106.72888874123014 80.10723608172694 l 6.377303062076881 -18.853363330537558 a40.90274612255388,40.90274612255388 0 0,0 0.663197569630362,0.2306945410954424 l -6.700006403752261 18.741110356873527" fill="#fff216" stroke="none" /><line stroke="#e1ed5e" stroke-width="0.3" x1="143.13028292997686" x2="145.6673583964461" y1="26.7553504044142" y2="22.446841604673864" /><path d="M 143.63769802327073 25.89364864446614 a86.0,86.0 0 0,1 29.32050498858742,28.57503671076993" fill="none" id="id14" stroke="none" /><text fill="#e1ed5e" style="font-size:6.75px; font-family:Arial;" text-anchor="middle"><textPath startOffset="20.669276256404974" xlink:href="#id14">February</textPath></text><path d="M 117.62189284568427 88.57770195909679 l 10.371408569058307 -6.7226217306601415 a33.359601880314756,33.359601880314756 0 0,0 0.3073567989640287,0.4832159385788291 l -10.485283059648227 6.543592117402641" fill="#ff8f0d" stroke="none" /><line stroke="#e1ed5e" stroke-width="0.3" x1="172.87174338648825" x2="177.1583165268699" y1="56.24261187166439" y2="53.66864786411523" /><path d="M 173.72905801456457 55.72781907015455 a86.0,86.0 0 0,1 12.242430191666344,42.057860355516425" fill="none" id="id15" stroke="none" /><text fill="#e1ed5e" style="font-size:6.75px; font-family:Arial;" text-anchor="middle"><textPath startOffset="22.145653131862474" xlink:href="#id15">March</textPath></text><path d="M 118.18653347947321 89.5 l 25.37837862419112 -14.652213730272994 a50.30442746054598,50.30442746054598 0 0,0 0.42535180517597326,0.7515558833231579 l -25.62616379438847 14.214401076850718" fill="#9cff22" stroke="none" /><path d="M 118.8641267826498 90.77261029715802 l 19.17237563212451 -9.378169661666876 a42.34315003888345,42.34315003888345 0 0,0 0.3137844013983726,0.6556887150393536 l -19.330539291482793 9.047668444562419" fill="#faff18" stroke="none" /><path d="M 119.71291397450082 92.76114493625339 l 3.0088165723250055 -1.1048791218098495 a24.20526676576364,24.20526676576364 0 0,0 0.13988319327305082,0.39127818754530946 l -3.027339935642 1.0530659778836233" fill="#ff0d01" stroke="none" /><path d="M 120.16314734710363 94.1308016681162 l 60.48944204131091 -17.607594995651397 a84.0,84.0 0 0,0 0.3911260317016718,1.3879683043879474 l -60.782786565087164 16.56661876736044" fill="#4dd2ff" stroke="none" /><path d="M 120.592083275326 95.88100663000786 l 5.490283703012722 -1.0982105049653972 a26.599042905067208,26.599042905067208 0 0,0 0.08571694548247077,0.44850727929776724 l -5.508326940777349 1.0038006606343155" fill="#ff3004" stroke="none" /><path d="M 120.7213421655516 96.59031103205396 l 4.36043617570121 -0.717508113371066 a25.419074737444152,25.419074737444152 0 0,0 0.06715296845996761,0.43117022980216924 l -4.372110636299443 0.6425497016374555" fill="#ff1f03" stroke="none" /><path d="M 120.82617615685814 97.30363454192243 l 7.222423303715363 -0.9350872946179151 a28.282704623050876,28.282704623050876 0 0,0 0.05820568994011546,0.4820266103951109 l -7.237411079915143 0.8109670072993912" fill="#ff4906" stroke="none" /><path d="M 120.93736805541906 98.37931529534042 l 6.931848258322865 -0.5365688952665326 a27.95258415668457,27.95258415668457 0 0,0 0.03292553367792895,0.478730033515761 l -6.940037753165861 0.4174954375964375" fill="#ff4406" stroke="none" /><path d="M 120.99303781780057 99.45929381324524 l 4.9205357564200245 -0.12673554674342383 a25.922167614884355,25.922167614884355 0 0,0 0.007639100352169339,0.444939298169136 l -4.92198628837086 0.04224933260522142" fill="#ff2603" stroke="none" /><line stroke="#e1ed5e" stroke-width="0.3" x1="184.99686870605535" x2="189.99668451229388" y1="99.2704041080226" y2="99.22748670261217" /><path d="M 185.99683186730306 99.26182062694052 a86.0,86.0 0 0,1 -10.086455211305974,41.156179273409016" fill="none" id="id16" stroke="none" /><text fill="#e1ed5e" style="font-size:6.75px; font-family:Arial;" text-anchor="middle"><textPath startOffset="21.40746469413373" xlink:href="#id16">April</textPath></text><path d="M 120.99922638620191 99.81974689727618 l 5.985843609352349 -0.05138126820301926 a26.98606412848597,26.98606412848597 0 0,0 0.0,0.46326874185369155 l -5.985843609352349 -0.05138126820301854" fill="#ff3605" stroke="none" /><path d="M 120.9064616781168 101.97986365728391 l 5.678203400430662 0.5377317656266 a26.703608446275588,26.703608446275588 0 0,0 -0.047135184629038596,0.4559901536934163 l -5.668135823319957 -0.6351264416029476" fill="#ff3204" stroke="none" /><path d="M 120.7213421655516 103.40968896794604 l 5.572048598859199 0.9168784765291107 a26.646980762210113,26.646980762210113 0 0,0 -0.07814567492960146,0.4507234865889568 l -5.555488106437363 -1.0123949960386556" fill="#ff3104" stroke="none" /><path d="M 120.592083275326 104.11899336999214 l 5.904536015382328 1.1810725692519592 a27.021501305387755,27.021501305387755 0 0,0 -0.09488701729627222,0.4540687272495801 l -5.8833912872616905 -1.2822577477869483" fill="#ff3605" stroke="none" /><path d="M 119.94978838288452 106.5578916946017 l 16.56458632407901 5.445108539215689 a38.43659161337745,38.43659161337745 0 0,0 -0.21142793697211754,0.6250491273756632 l -16.468672965534527 -5.728659341065513" fill="#ffd213" stroke="none" /><line stroke="#e1ed5e" stroke-width="0.3" x1="174.33088141563837" x2="178.70328620479359" y1="141.23008692659167" y2="143.65538615756765" /><path d="M 175.20536237346943 141.71514677278685 a86.0,86.0 0 0,1 -30.301960400862466,31.631185727798858" fill="none" id="id17" stroke="none" /><text fill="#e1ed5e" style="font-size:6.75px; font-family:Arial;" text-anchor="middle"><textPath startOffset="22.145653131862474" xlink:href="#id17">May</textPath></text><line stroke="#e1ed5e" stroke-width="0.3" x1="143.1302829299769" x2="145.66735839644613" y1="173.24464959558577" y2="177.55315839532614" /><path d="M 143.63769802327073 174.10635135553383 a86.0,86.0 0 0,1 -40.68552437913181,11.842963189579606" fill="none" id="id18" stroke="none" /><text fill="#e1ed5e" style="font-size:6.75px; font-family:Arial;" text-anchor="middle"><textPath startOffset="21.407464694133747" xlink:href="#id18">June</textPath></text><path d="M 110.02825361518725 118.45085714620011 l 2.9996652479212904 5.519046196837055 a27.281549372758942,27.281549372758942 0 0,0 -0.41339495871824883,0.2201095309538192 l -2.904481473416488 -5.569726195513443" fill="#ff3a05" stroke="none" /><path d="M 108.07796709384702 119.3841803445677 l 2.553415059120179 6.127266603774786 a27.638021128158265,27.638021128158265 0 0,0 -0.43950446939394244,0.17874264153022307 l -2.447856128535796 -6.170196501884301" fill="#ff3f05" stroke="none" /><path d="M 107.74402155503746 119.51999308798841 l 0.8534444874927216 2.1512376196839154 a23.314344570191533,23.314344570191533 0 0,0 -0.37328234887056033,0.14439363156130366 l -0.8163898761286319 -2.1655711393832595" fill="#ff0000" stroke="none" /><line stroke="#e1ed5e" stroke-width="0.3" x1="101.45913802915013" x2="101.54496967792366" y1="184.9874750549273" y2="189.98673829345242" /><path d="M 101.47630435890484 185.9873277026323 a86.0,86.0 0 0,1 -42.54439059252881,-10.42667462771756" fill="none" id="id19" stroke="none" /><text fill="#e1ed5e" style="font-size:6.75px; font-family:Arial;" text-anchor="middle"><textPath startOffset="22.145653131862474" xlink:href="#id19">July</textPath></text><line stroke="#e1ed5e" stroke-width="0.3" x1="58.13341422392154" x2="55.67067388415222" y1="173.97424548756322" y2="178.32567169271397" /><path d="M 57.64086615596768 174.84453072859336 a86.0,86.0 0 0,1 -31.369924170532247,-30.572349798747897" fill="none" id="id20" stroke="none" /><text fill="#e1ed5e" style="font-size:6.75px; font-family:Arial;" text-anchor="middle"><textPath startOffset="22.145653131862474" xlink:href="#id20">August</textPath></text><line stroke="#e1ed5e" stroke-width="0.3" x1="26.387840678322732" x2="22.057713659400548" y1="142.50000000000003" y2="145.00000000000006" /><path d="M 25.521815274538298 143.00000000000003 a86.0,86.0 0 0,1 -11.493303480769221,-40.785679425670985" fill="none" id="id21" stroke="none" /><text fill="#e1ed5e" style="font-size:6.75px; font-family:Arial;" text-anchor="middle"><textPath startOffset="21.40746469413373" xlink:href="#id21">September</textPath></text><line stroke="#e1ed5e" stroke-width="0.3" x1="15.003131293944662" x2="10.003315487706104" y1="100.72959589197737" y2="100.7725132973878" /><path d="M 14.003168132696942 100.73817937305945 a86.0,86.0 0 0,1 10.791469493833604,-42.45332614584628" fill="none" id="id22" stroke="none" /><text fill="#e1ed5e" style="font-size:6.75px; font-family:Arial;" text-anchor="middle"><textPath startOffset="22.145653131862435" xlink:href="#id22">October</textPath></text><line stroke="#e1ed5e" stroke-width="0.3" x1="26.387840678322718" x2="22.05771365940052" y1="57.49999999999999" y2="54.99999999999999" /><path d="M 25.521815274538284 56.99999999999999 a86.0,86.0 0 0,1 29.574782752854787,-30.34633250058573" fill="none" id="id23" stroke="none" /><text fill="#e1ed5e" style="font-size:6.75px; font-family:Arial;" text-anchor="middle"><textPath startOffset="21.40746469413373" xlink:href="#id23">November</textPath></text><line stroke="#e1ed5e" stroke-width="0.3" x1="56.869717070023135" x2="54.33264160355391" y1="26.7553504044142" y2="22.446841604673864" /><path d="M 56.362301976729285 25.89364864446614 a86.0,86.0 0 0,1 42.16139366436587,-11.88097634709845" fill="none" id="id24" stroke="none" /><text fill="#e1ed5e" style="font-size:6.75px; font-family:Arial;" text-anchor="middle"><textPath startOffset="22.145653131862474" xlink:href="#id24">December</textPath></text></svg>