<?xml version="1.0" encoding="utf-8" ?>
<svg baseProfile="full" height="200mm" version="1.1" viewBox="0,0,200,200" width="200mm" xmlns="http://www.w3.org/2000/svg" xmlns:ev="http://www.w3.org/2001/xml-events" xmlns:xlink="http://www.w3.org/1999/xlink"><defs /><rect fill="#1a1a1a" height="200" width="200" x="0" y="0" /><text alignment-baseline="middle" fill="#e1ed5e" style="dominant-baseline: central; font-size:9.0px; font-family:Arial;" text-anchor="middle" x="100.0" y="100.0">2025</text><line stroke="#e1ed5e" stroke-width="0.3" x1="100.0" x2="100.0" y1="15.0" y2="10.0" /><path d="M 100.0 14.0 a86.0,86.0 0 0,1 42.46469731375804,11.215312516191453" fill="none" id="id25" stroke="none" /><text fill="#e1ed5e" style="font-size:6.75px; font-family:Arial;" text-anchor="middle"><textPath startOffset="22.20632615414155" xlink:href="#id25">January</textPath></text><path d="M 100.36148047927253 79.00311137660856 l 0.13224294420029958 -7.681439330253983 a28.682577587025303,28.682577587025303 0 0,0 0.49357712256702874,0.012747640881552561 l -0.2644467019621961 7.678024897230071" fill="#ff5b08" stroke="none" /><path d="M 104.66035177308747 79.52364482259891 l 11.246547079947964 -49.41435834484486 a71.67803895036019,71.67803895036019 0 0,0 1.2006969651292543,0.2841661786830251 l -12.095467732039742 49.213446254020965" fill="#3effb2" stroke="none" /><path d="M 106.0581310904928 79.89281104454417 l 4.318234524624718 -14.33239991733809 a35.96879543584499,35.96879543584499 0 0,0 0.591283538591888,0.183714673661283 l -4.564303435927324 14.255945108794288" fill="#ffbd11" stroke="none" /><path d="M 106.40334571778207 80.00007090966166 l 19.21003715334621 -59.99978727101504 a84.0,84.0 0 0,0 1.37326871103033,0.45274510296305515 l -20.239988686618958 59.66022844379275" fill="#4dd2ff" stroke="none" /><line stroke="#e1ed5e" stroke-width="0.3" x1="143.23703022742887" x2="145.7803849466894" y1="26.81831364943548" y2="22.513508569990506" /><path d="M 143.74570117128098 25.957352633546492 a86.0,86.0 0 0,1 28.547481713284135,27.462654790039103" fill="none" id="id26" stroke="none" /><text fill="#e1ed5e" style="font-size:6.75px; font-family:Arial;" text-anchor="middle"><textPath startOffset="19.985693538727396" xlink:href="#id26">February</textPath></text><path d="M 115.19652480421416 85.50635884689758 l 3.2222701045254074 -3.0732307020885443 a25.452838597431736,25.452838597431736 0 0,0 0.29965587856650544,0.31965199835282976 l -3.274693305062376 3.01730928685766" fill="#ff2e04" stroke="none" /><path d="M 116.38621287248628 86.86637796730983 l 25.08490628539099 -20.105663245163914 a53.14794266939618,53.14794266939618 0 0,0 0.5660152620398284,0.7187819030407796 l -25.427275628024784 19.670888948170095" fill="#77ff27" stroke="none" /><path d="M 117.65298651832404 88.62581576622439 l 3.5792660579088458 -2.3061951314637987 a25.25789637000311,25.25789637000311 0 0,0 0.23233945502685957,0.3675052214116792 l -3.618433109181661 2.2442422623379135" fill="#ff2b04" stroke="none" /><line stroke="#e1ed5e" stroke-width="0.3" x1="172.23445277983987" x2="176.4835382374775" y1="55.19839476539836" y2="52.563006222186495" /><path d="M 173.08426987136738 54.67131705675599 a86.0,86.0 0 0,1 12.851231095245387,41.99856678651699" fill="none" id="id27" stroke="none" /><text fill="#e1ed5e" style="font-size:6.75px; font-family:Arial;" text-anchor="middle"><textPath startOffset="22.20632615414155" xlink:href="#id27">March</textPath></text><path d="M 119.04729006885535 91.15688171328212 l 4.956624482574285 -2.301220616885387 a26.464772876234946,26.464772876234946 0 0,0 0.18827503570479812,0.4148390843738135 l -4.995501835242431 2.2155595236695107" fill="#ff3c05" stroke="none" /><path d="M 120.53481517161879 95.60439243477599 l 4.384136061411048 -0.9384521592940479 a25.483451958061828,25.483451958061828 0 0,0 0.08812505827194289,0.42972908111142205 l -4.399640415597988 0.862847422019214" fill="#ff2e04" stroke="none" /><line stroke="#e1ed5e" stroke-width="0.3" x1="184.98032266829074" x2="189.97916517819016" y1="98.17113171792111" y2="98.06355123074" /><path d="M 185.9800911702706 98.14961562048488 a86.0,86.0 0 0,1 -9.607161424134198,41.387399972396054" fill="none" id="id28" stroke="none" /><text fill="#e1ed5e" style="font-size:6.75px; font-family:Arial;" text-anchor="middle"><textPath startOffset="21.466115282336823" xlink:href="#id28">April</textPath></text><path d="M 120.95626037817324 101.35467743843564 l 2.361806069437235 0.1526744437456681 a23.366735598964027,23.366735598964027 0 0,0 -0.029401407966912305,0.40115885218113156 l -2.3588281028059854 -0.19330643242356996" fill="#ff1001" stroke="none" /><path d="M 120.13307415673323 105.97154293290107 l 3.2301014658021088 0.9580598288420429 a24.369188940237365,24.369188940237365 0 0,0 -0.12274322693413152,0.4011319674963227 l -3.213131466361845 -1.0135187688904228" fill="#ff1e03" stroke="none" /><line stroke="#e1ed5e" stroke-width="0.3" x1="174.80103733775053" x2="179.2010983576182" y1="140.37084112569926" y2="142.7455964860345" /><path d="M 175.68104954172406 140.8457921977663 a86.0,86.0 0 0,1 -30.038265399797805,32.042727171017184" fill="none" id="id29" stroke="none" /><text fill="#e1ed5e" style="font-size:6.75px; font-family:Arial;" text-anchor="middle"><textPath startOffset="22.206326154141568" xlink:href="#id29">May</textPath></text><path d="M 114.81725581225074 114.88116024355365 l 4.28162372843228 4.300089680082538 a27.068201793663974,27.068201793663974 0 0,0 -0.33300339154736663,0.32591390655233277 l -4.206970384509118 -4.373153689557442" fill="#ff4506" stroke="none" /><line stroke="#e1ed5e" stroke-width="0.3" x1="143.8653032363475" x2="146.44561519142675" y1="172.8068346515853" y2="177.08958963109032" /><path d="M 144.38136562736335 173.6633856474863 a86.0,86.0 0 0,1 -40.68145358897372,12.25698825130547" fill="none" id="id30" stroke="none" /><text fill="#e1ed5e" style="font-size:6.75px; font-family:Arial;" text-anchor="middle"><textPath startOffset="21.466115282336833" xlink:href="#id30">June</textPath></text><line stroke="#e1ed5e" stroke-width="0.3" x1="102.19456741930631" x2="102.32365962044197" y1="184.97166512339345" y2="189.96999836594603" /><path d="M 102.22038585953345 185.97133177190398 a86.0,86.0 0 0,1 -42.740103519485714,-10.115201625700543" fill="none" id="id31" stroke="none" /><text fill="#e1ed5e" style="font-size:6.75px; font-family:Arial;" text-anchor="middle"><textPath startOffset="22.20632615414155" xlink:href="#id31">July</textPath></text><path d="M 90.7491055286396 118.85261126421891 l -0.8522525071084468 1.7368250459686359 a22.93465644913421,22.93465644913421 0 0,0 -0.35291641000838553,-0.17695961440269595 l 0.8820228247995927 -1.7218975906566378" fill="#ff0901" stroke="none" /><line stroke="#e1ed5e" stroke-width="0.3" x1="58.666819895761336" x2="56.23545636021788" y1="174.27360380694188" y2="178.64263932499728" /><path d="M 58.180547188652646 175.14741091055294 a86.0,86.0 0 0,1 -31.652253787137756,-30.449443065178592" fill="none" id="id32" stroke="none" /><text fill="#e1ed5e" style="font-size:6.75px; font-family:Arial;" text-anchor="middle"><textPath startOffset="22.20632615414155" xlink:href="#id32">August</textPath></text><path d="M 87.36589467227662 116.77436683061367 l -4.867594578647803 6.462730436936911 a29.090757794087786,29.090757794087786 0 0,0 -0.39739536559418925,-0.30470582052991474 l 4.978118672735479 -6.37798527457963" fill="#ff6108" stroke="none" /><path d="M 86.79598089348748 116.32954008644616 l -1.2892704412738223 1.5944534147687728 a23.050487737737097,23.050487737737097 0 0,0 -0.3063847466293706,-0.2521337879086149 l 1.3165253164478816 -1.572024508002977" fill="#ff0b01" stroke="none" /><path d="M 83.50135304334701 112.99209946851258 l -1.6765798805303394 1.320247207664112 a23.134003932785507,23.134003932785507 0 0,0 -0.24367066478012134,-0.314977181364473 l 1.699057362528529 -1.2911920321863866" fill="#ff0c01" stroke="none" /><path d="M 83.06392112726016 112.41649034213515 l -2.7201523448875835 1.9942482302557338 a24.37287040712737,24.37287040712737 0 0,0 -0.2451448927521836,-0.3404848150545527 l 2.7540770300153743 -1.9471298097500431" fill="#ff1e03" stroke="none" /><path d="M 82.05923443525364 110.91462005526583 l -1.1060580474743134 0.6728923190977539 a22.294661530085545,22.294661530085545 0 0,0 -0.19663798500984583,-0.32957657347226793 l 1.1174769081823912 -0.6537536517393749" fill="#ff0000" stroke="none" /><line stroke="#e1ed5e" stroke-width="0.3" x1="26.63291911575756" x2="22.317208475507996" y1="142.92168965132927" y2="145.44649492493687" /><path d="M 25.769776987707644 143.4266507060508 a86.0,86.0 0 0,1 -11.730757126820373,-40.83630448921669" fill="none" id="id33" stroke="none" /><text fill="#e1ed5e" style="font-size:6.75px; font-family:Arial;" text-anchor="middle"><textPath startOffset="21.46611528233685" xlink:href="#id33">September</textPath></text><path d="M 81.87401531095188 110.60418214915194 l -2.8888380978895225 1.6900469637900162 a24.34688576076833,24.34688576076833 0 0,0 -0.2085113716181093,-0.3635571518919964 l 2.917501465660009 -1.640069966039713" fill="#ff1e03" stroke="none" /><path d="M 81.51974371655577 109.97397251340807 l -2.4830709687016963 1.3401373450031244 a23.821632424516206,23.821632424516206 0 0,0 -0.19164785943384471,-0.362525525667279 l 2.5057713363604273 -1.2971968042497193" fill="#ff1602" stroke="none" /><line stroke="#e1ed5e" stroke-width="0.3" x1="15.007084014347285" x2="10.007500721073583" y1="101.09737516637583" y2="101.16192664675087" /><path d="M 14.007167355692545 101.11028546245083 a86.0,86.0 0 0,1 10.666146001902534,-42.60595125391555" fill="none" id="id34" stroke="none" /><text fill="#e1ed5e" style="font-size:6.75px; font-family:Arial;" text-anchor="middle"><textPath startOffset="22.20632615414155" xlink:href="#id34">October</textPath></text><line stroke="#e1ed5e" stroke-width="0.3" x1="26.266209847984243" x2="21.928928074336255" y1="57.711370442889674" y2="55.22380399835377" /><path d="M 25.398753493254645 57.213857153982495 a86.0,86.0 0 0,1 29.58750427330803,-30.492523968695096" fill="none" id="id35" stroke="none" /><text fill="#e1ed5e" style="font-size:6.75px; font-family:Arial;" text-anchor="middle"><textPath startOffset="21.46611528233685" xlink:href="#id35">November</textPath></text><line stroke="#e1ed5e" stroke-width="0.3" x1="56.762969772571076" x2="54.21961505331055" y1="26.818313649435495" y2="22.513508569990535" /><path d="M 56.25429882871897 25.957352633546506 a86.0,86.0 0 0,1 42.265352541879196,-11.944610805530505" fill="none" id="id36" stroke="none" /><text fill="#e1ed5e" style="font-size:6.75px; font-family:Arial;" text-anchor="middle"><textPath startOffset="22.20632615414155" xlink:href="#id36">December</textPath></text></svg>